<svg width="19" height="32" viewBox="0 0 19 32" fill="none" xmlns="http://www.w3.org/2000/svg">
<path d="M13.5615 5.47348C13.5615 3.29625 11.7147 1.53125 9.43652 1.53125C7.15835 1.53125 5.31152 3.29625 5.31152 5.47348V16.5117C5.31152 18.689 7.15835 20.454 9.43652 20.454C11.7147 20.454 13.5615 18.689 13.5615 16.5117V5.47348Z" stroke="#F1F2F3" stroke-width="2.25" stroke-linejoin="round"/>
<path d="M17.6865 16.5117C17.6865 18.6028 16.8173 20.6082 15.2702 22.0869C13.723 23.5655 11.6246 24.3962 9.43652 24.3962V24.3962C7.24849 24.3962 5.15007 23.5655 3.60289 22.0869C2.05572 20.6082 1.18652 18.6028 1.18652 16.5117" stroke="#F1F2F3" stroke-width="2.25" stroke-linejoin="round"/>
<path d="M4.48535 29.916H14.3854" stroke="#F1F2F3" stroke-width="2.25" stroke-linejoin="round"/>
<path d="M9.43652 24.3965V29.9156" stroke="#F1F2F3" stroke-width="2.25" stroke-linejoin="round"/>
</svg>
