<svg width="120" height="54" viewBox="0 0 120 54" fill="none" xmlns="http://www.w3.org/2000/svg">
<path d="M23.675 25.1001V27.4746C23.6745 27.6007 23.6242 27.7215 23.5349 27.8106C23.4456 27.8997 23.3248 27.9498 23.1986 27.9501H20.2223C20.1906 27.9481 20.1588 27.9529 20.1291 27.9641C20.0993 27.9753 20.0723 27.9927 20.0498 28.0151C20.0273 28.0375 20.0098 28.0645 19.9985 28.0942C19.9871 28.1239 19.9822 28.1556 19.9841 28.1873V40.7737C19.9836 40.8998 19.9333 41.0206 19.844 41.1097C19.7547 41.1988 19.6338 41.2489 19.5077 41.2492H17.1259C16.9998 41.2489 16.8789 41.1988 16.7897 41.1097C16.7004 41.0206 16.65 40.8998 16.6496 40.7737V28.1873C16.6514 28.1556 16.6465 28.1239 16.6352 28.0942C16.6239 28.0645 16.6064 28.0375 16.5839 28.0151C16.5614 27.9927 16.5343 27.9753 16.5046 27.9641C16.4749 27.9529 16.4431 27.9481 16.4114 27.9501H13.435C13.3088 27.9501 13.1878 27.9 13.0985 27.8109C13.0092 27.7217 12.9589 27.6008 12.9586 27.4746V25.1001C12.9589 24.9739 13.0092 24.853 13.0985 24.7638C13.1878 24.6747 13.3088 24.6246 13.435 24.6246H23.1986C23.3248 24.6246 23.4459 24.6747 23.5352 24.7638C23.6245 24.853 23.6748 24.9739 23.675 25.1001ZM36.7741 24.6246H34.3696C34.2434 24.6246 34.1223 24.6747 34.033 24.7638C33.9437 24.853 33.8934 24.9739 33.8932 25.1001V36.2619C33.8932 37.3064 33.0359 38.1619 31.5832 38.1619C31.308 38.1963 31.0288 38.1735 30.7628 38.0949C30.4969 38.0164 30.25 37.8838 30.0377 37.7054C29.8254 37.5271 29.6522 37.3068 29.5289 37.0584C29.4057 36.81 29.335 36.5389 29.3214 36.2619V25.1001C29.3209 24.974 29.2705 24.8532 29.1813 24.7641C29.092 24.675 28.9711 24.6249 28.845 24.6246H26.4396C26.3133 24.6246 26.1922 24.6747 26.1027 24.7638C26.0133 24.8529 25.9628 24.9738 25.9623 25.1001V36.2619C26.0663 37.6877 26.7061 39.0213 27.7531 39.9947C28.8001 40.9682 30.1768 41.5092 31.6064 41.5092C33.036 41.5092 34.4126 40.9682 35.4596 39.9947C36.5066 39.0213 37.1464 37.6877 37.2505 36.2619V25.1001C37.2502 24.9739 37.1999 24.853 37.1106 24.7638C37.0213 24.6747 36.9003 24.6246 36.7741 24.6246ZM50.2077 24.6246H47.8259C47.6997 24.6246 47.5787 24.6747 47.4894 24.7638C47.4001 24.853 47.3498 24.9739 47.3496 25.1001V34.0292C47.3496 34.1719 47.1832 34.2192 47.135 34.0764L43.8732 25.0546C43.8377 24.9261 43.7592 24.8136 43.6509 24.7359C43.5426 24.6581 43.4109 24.6198 43.2777 24.6273H40.4432C40.3171 24.6276 40.1962 24.6777 40.1069 24.7668C40.0177 24.8559 39.9673 24.9767 39.9668 25.1028V40.7737C39.9673 40.8998 40.0177 41.0206 40.1069 41.1097C40.1962 41.1988 40.3171 41.2489 40.4432 41.2492H42.8241C42.9503 41.2492 43.0713 41.1991 43.1606 41.11C43.2499 41.0208 43.3002 40.8999 43.3005 40.7737V32.5564C43.3005 32.4137 43.4668 32.3674 43.515 32.5092L46.7541 40.8446C46.8007 40.9741 46.8893 41.0841 47.0058 41.1573C47.1223 41.2305 47.26 41.2625 47.3968 41.2483H50.2077C50.3337 41.2478 50.4543 41.1975 50.5434 41.1085C50.6325 41.0194 50.6827 40.8988 50.6832 40.7728V25.1001C50.683 24.9741 50.6328 24.8533 50.5437 24.7641C50.4546 24.675 50.3338 24.6249 50.2077 24.6246ZM62.545 37.9237H56.9014C56.8696 37.9257 56.8378 37.9209 56.808 37.9097C56.7783 37.8985 56.7512 37.8811 56.7286 37.8587C56.706 37.8363 56.6884 37.8094 56.677 37.7797C56.6656 37.75 56.6606 37.7182 56.6623 37.6864V34.8364C56.6606 34.8047 56.6656 34.7729 56.677 34.7432C56.6884 34.7135 56.706 34.6866 56.7286 34.6642C56.7512 34.6418 56.7783 34.6244 56.808 34.6132C56.8378 34.602 56.8696 34.5972 56.9014 34.5992H62.2596C62.3857 34.5992 62.5068 34.5491 62.5961 34.46C62.6854 34.3708 62.7357 34.2499 62.7359 34.1237V31.7492C62.7354 31.6231 62.6851 31.5023 62.5958 31.4132C62.5066 31.3241 62.3857 31.274 62.2596 31.2737H56.9014C56.8696 31.2757 56.8378 31.2709 56.808 31.2597C56.7783 31.2485 56.7512 31.2311 56.7286 31.2087C56.706 31.1863 56.6884 31.1594 56.677 31.1297C56.6656 31.1 56.6606 31.0682 56.6623 31.0364V28.1873C56.6606 28.1556 56.6656 28.1238 56.677 28.0941C56.6884 28.0644 56.706 28.0375 56.7286 28.0151C56.7512 27.9927 56.7783 27.9753 56.808 27.9641C56.8378 27.9529 56.8696 27.9481 56.9014 27.9501H62.4468C62.5729 27.9498 62.6938 27.8997 62.7831 27.8106C62.8723 27.7215 62.9227 27.6007 62.9232 27.4746V25.1001C62.923 24.9739 62.8727 24.853 62.7834 24.7638C62.694 24.6747 62.573 24.6246 62.4468 24.6246H53.8023C53.6761 24.6246 53.5551 24.6747 53.4658 24.7638C53.3765 24.853 53.3262 24.9739 53.3259 25.1001V40.7737C53.3264 40.8998 53.3768 41.0206 53.466 41.1097C53.5553 41.1988 53.6762 41.2489 53.8023 41.2492H62.545C62.6711 41.2489 62.792 41.1988 62.8813 41.1097C62.9705 41.0206 63.0209 40.8998 63.0214 40.7737V38.3983C63.0207 38.2723 62.9702 38.1517 62.881 38.0629C62.7917 37.974 62.671 37.924 62.545 37.9237ZM119.545 2.65462V39.4728C119.545 39.7071 119.498 39.9391 119.408 40.1554C119.319 40.3718 119.187 40.5683 119.021 40.7338C118.855 40.8993 118.658 41.0304 118.442 41.1198C118.225 41.2092 117.993 41.255 117.759 41.2546H76.6723V51.3455C76.672 51.5798 76.6256 51.8118 76.5357 52.0282C76.4458 52.2445 76.3142 52.4411 76.1483 52.6065C75.9824 52.772 75.7855 52.9032 75.5689 52.9925C75.3523 53.0819 75.1202 53.1277 74.8859 53.1274H2.24047C2.00616 53.1277 1.77408 53.0819 1.55748 52.9925C1.34088 52.9032 1.14401 52.772 0.978123 52.6065C0.812232 52.4411 0.680567 52.2445 0.590654 52.0282C0.50074 51.8118 0.45434 51.5798 0.454102 51.3455V14.5273C0.45434 14.293 0.50074 14.0611 0.590654 13.8447C0.680567 13.6283 0.812232 13.4318 0.978123 13.2663C1.14401 13.1009 1.34088 12.9697 1.55748 12.8803C1.77408 12.791 2.00616 12.7452 2.24047 12.7455H73.0996V2.65462C73.0998 2.42032 73.1462 2.18835 73.2361 1.97198C73.326 1.75561 73.4577 1.55908 73.6236 1.39361C73.7895 1.22814 73.9863 1.09698 74.2029 1.00762C74.4195 0.918258 74.6516 0.872446 74.8859 0.872805H117.759C117.993 0.872446 118.225 0.918258 118.442 1.00762C118.658 1.09698 118.855 1.22814 119.021 1.39361C119.187 1.55908 119.319 1.75561 119.408 1.97198C119.498 2.18835 119.545 2.42032 119.545 2.65462ZM73.0996 16.3119H4.3241C4.24526 16.3119 4.16965 16.3432 4.1139 16.399C4.05815 16.4547 4.02683 16.5303 4.02683 16.6092V49.2683C4.02683 49.3471 4.05815 49.4227 4.1139 49.4785C4.16965 49.5342 4.24526 49.5655 4.3241 49.5655H72.8014C72.8802 49.5655 72.9558 49.5342 73.0116 49.4785C73.0673 49.4227 73.0986 49.3471 73.0986 49.2683L73.0996 16.3119ZM94.415 26.6419C94.4148 26.5157 94.3645 26.3948 94.2752 26.3056C94.1859 26.2165 94.0648 26.1664 93.9386 26.1664H91.915C91.8833 26.1684 91.8515 26.1637 91.8218 26.1524C91.7921 26.1412 91.765 26.1238 91.7425 26.1014C91.72 26.079 91.7025 26.052 91.6912 26.0223C91.6799 25.9926 91.675 25.9609 91.6768 25.9292V16.1919C91.675 16.1601 91.6799 16.1283 91.6912 16.0986C91.7025 16.0689 91.72 16.0419 91.7425 16.0194C91.765 15.9969 91.792 15.9794 91.8217 15.9681C91.8515 15.9568 91.8832 15.9519 91.915 15.9537H93.7014C93.8272 15.9535 93.9479 15.9034 94.037 15.8145C94.1261 15.7256 94.1764 15.605 94.1768 15.4792V13.2237C94.1766 13.0977 94.1264 12.9769 94.0373 12.8878C93.9482 12.7987 93.8274 12.7485 93.7014 12.7483H86.3187C86.1924 12.7483 86.0713 12.7983 85.9818 12.8874C85.8924 12.9765 85.8419 13.0974 85.8414 13.2237V15.4792C85.8421 15.6053 85.8927 15.726 85.9821 15.8149C86.0716 15.9038 86.1925 15.9537 86.3187 15.9537H88.1041C88.1359 15.9519 88.1677 15.9568 88.1974 15.9681C88.2271 15.9794 88.2541 15.9969 88.2766 16.0194C88.2991 16.0419 88.3166 16.0689 88.3279 16.0986C88.3392 16.1283 88.3441 16.1601 88.3423 16.1919V25.9283C88.3442 25.96 88.3393 25.9917 88.3279 26.0214C88.3166 26.0511 88.2991 26.0781 88.2766 26.1005C88.2541 26.1229 88.2271 26.1403 88.1973 26.1515C88.1676 26.1627 88.1358 26.1675 88.1041 26.1655H86.0805C85.9544 26.1658 85.8335 26.2159 85.7442 26.305C85.655 26.3941 85.6046 26.5149 85.6041 26.641V28.8964C85.6046 29.0225 85.655 29.1433 85.7442 29.2324C85.8335 29.3215 85.9544 29.3717 86.0805 29.3719H93.9386C94.0648 29.3719 94.1859 29.3218 94.2752 29.2327C94.3645 29.1436 94.4148 29.0226 94.415 28.8964V26.6419ZM107.779 13.2246C107.778 13.0986 107.728 12.9778 107.639 12.8887C107.55 12.7996 107.429 12.7494 107.303 12.7492H104.921C104.795 12.7492 104.674 12.7992 104.585 12.8884C104.496 12.9775 104.445 13.0984 104.445 13.2246V22.1537C104.445 22.2964 104.279 22.3437 104.23 22.201L100.968 13.1774C100.932 13.0489 100.854 12.9365 100.745 12.8588C100.637 12.7811 100.505 12.7427 100.372 12.7501H97.5387C97.4125 12.7503 97.2917 12.8005 97.2024 12.8895C97.1131 12.9786 97.0628 13.0994 97.0623 13.2255V28.8974C97.0628 29.0235 97.1131 29.1442 97.2024 29.2333C97.2917 29.3224 97.4125 29.3726 97.5387 29.3728H99.9196C100.046 29.3728 100.167 29.3227 100.256 29.2336C100.345 29.1445 100.396 29.0235 100.396 28.8974V20.6801C100.396 20.5374 100.562 20.491 100.61 20.6328L103.85 28.9683C103.896 29.0977 103.985 29.2078 104.101 29.2809C104.218 29.3541 104.355 29.3861 104.492 29.3719H107.303C107.429 29.3714 107.55 29.3212 107.639 29.2321C107.728 29.143 107.778 29.0224 107.779 28.8964V13.2246Z" fill="#F1F2F3"/>
</svg>
